<svg width="193" height="84" viewBox="0 0 193 84" fill="none" xmlns="http://www.w3.org/2000/svg">
<path d="M96.218 61.041C93.1293 61.041 90.56 60.221 88.51 58.581C86.4873 56.941 85.476 54.3717 85.476 50.873C85.476 48.6863 85.886 46.773 86.706 45.133C87.5533 43.4657 88.7697 42.1673 90.355 41.238C91.9403 40.3087 93.8127 39.844 95.972 39.844C98.0493 39.844 99.908 40.2813 101.548 41.156C103.215 42.0033 104.514 43.2607 105.443 44.928C106.4 46.568 106.878 48.536 106.878 50.832C106.878 54.1667 105.894 56.7087 103.926 58.458C101.985 60.18 99.416 61.041 96.218 61.041ZM96.136 58.458C98.3227 58.458 100.127 57.8157 101.548 56.531C102.997 55.219 103.721 53.3057 103.721 50.791C103.721 49.151 103.393 47.7023 102.737 46.445C102.108 45.1603 101.206 44.1763 100.031 43.493C98.883 42.7823 97.5573 42.427 96.054 42.427C93.8127 42.427 92.0087 43.1923 90.642 44.723C89.3027 46.2537 88.633 48.2763 88.633 50.791C88.633 53.4423 89.3573 55.383 90.806 56.613C92.2547 57.843 94.0313 58.458 96.136 58.458ZM122.9 54.317C123.392 54.317 123.733 54.44 123.925 54.686C124.143 54.9047 124.253 55.3147 124.253 55.916C124.253 57.3373 123.774 58.54 122.818 59.524C121.888 60.508 120.686 61 119.21 61C117.16 61 115.684 60.098 114.782 58.294C113.907 56.49 113.47 53.6883 113.47 49.889C113.47 48.4677 113.538 46.8413 113.675 45.01C113.374 44.9827 112.527 44.9143 111.133 44.805C110.313 44.723 109.903 44.272 109.903 43.452C109.903 42.632 110.299 42.222 111.092 42.222C111.31 42.222 111.775 42.2493 112.486 42.304C113.087 42.3587 113.552 42.386 113.88 42.386C114.071 40.3633 114.399 37.8213 114.864 34.76C114.918 34.35 115.055 34.0493 115.274 33.858C115.52 33.6393 115.902 33.53 116.422 33.53C116.941 33.53 117.351 33.6667 117.652 33.94C117.952 34.2133 118.075 34.555 118.021 34.965L117.816 36.318C117.406 39.4887 117.146 41.566 117.037 42.55L120.317 42.632C120.727 42.632 121.027 42.714 121.219 42.878C121.437 43.042 121.547 43.329 121.547 43.739C121.547 44.2583 121.437 44.6137 121.219 44.805C121.027 44.969 120.645 45.0647 120.071 45.092C119.223 45.1193 118.13 45.133 116.791 45.133C116.654 46.855 116.586 48.4403 116.586 49.889C116.586 52.5403 116.791 54.6177 117.201 56.121C117.638 57.6243 118.417 58.376 119.538 58.376C120.139 58.376 120.617 58.1437 120.973 57.679C121.328 57.2143 121.533 56.5173 121.588 55.588C121.615 55.1507 121.697 54.8363 121.834 54.645C121.998 54.4263 122.353 54.317 122.9 54.317ZM133.249 37.794C132.539 37.794 131.937 37.5617 131.445 37.097C130.953 36.605 130.707 35.99 130.707 35.252C130.707 34.514 130.953 33.9127 131.445 33.448C131.937 32.956 132.566 32.71 133.331 32.71C134.069 32.71 134.671 32.9423 135.135 33.407C135.627 33.8717 135.873 34.473 135.873 35.211C135.873 35.949 135.614 36.564 135.094 37.056C134.602 37.548 133.987 37.794 133.249 37.794ZM132.634 60.754C132.142 60.754 131.746 60.631 131.445 60.385C131.172 60.139 131.035 59.811 131.035 59.401L131.445 41.976C131.445 41.5113 131.582 41.156 131.855 40.91C132.156 40.664 132.552 40.541 133.044 40.541C133.536 40.541 133.919 40.664 134.192 40.91C134.493 41.156 134.643 41.525 134.643 42.017L134.233 59.401C134.206 59.8383 134.042 60.18 133.741 60.426C133.468 60.6447 133.099 60.754 132.634 60.754ZM161.854 40.049C164.286 40.049 165.995 40.8553 166.979 42.468C167.963 44.0807 168.455 46.3357 168.455 49.233C168.455 53.825 168.441 57.31 168.414 59.688C168.414 60.0707 168.277 60.385 168.004 60.631C167.758 60.877 167.402 61 166.938 61C166.446 61 166.063 60.877 165.79 60.631C165.544 60.385 165.421 60.0433 165.421 59.606V49.479C165.421 47.019 165.147 45.2423 164.601 44.149C164.081 43.0557 163.097 42.509 161.649 42.509C160.282 42.509 159.271 43.2743 158.615 44.805C157.959 46.3357 157.617 48.1397 157.59 50.217V53.374V59.606C157.59 60.4807 157.084 60.918 156.073 60.918C155.007 60.918 154.474 60.4533 154.474 59.524L154.515 52.103V50.217C154.487 48.2763 154.091 46.5407 153.326 45.01C152.588 43.452 151.563 42.673 150.251 42.673C149.239 42.673 148.392 43.1787 147.709 44.19C147.053 45.174 146.506 46.7593 146.069 48.946C145.823 50.258 145.7 52.1577 145.7 54.645V57.351V59.729C145.7 60.1117 145.549 60.4123 145.249 60.631C144.948 60.8223 144.593 60.918 144.183 60.918C143.718 60.8907 143.349 60.7813 143.076 60.59C142.83 60.3713 142.707 60.0707 142.707 59.688C142.707 56.9273 142.679 52.513 142.625 46.445V44.887C142.597 44.2037 142.515 43.7117 142.379 43.411C142.242 43.1103 142.051 42.837 141.805 42.591C141.75 42.5363 141.654 42.4543 141.518 42.345C141.408 42.2357 141.354 42.099 141.354 41.935C141.354 41.525 141.504 41.1833 141.805 40.91C142.105 40.6367 142.447 40.5 142.83 40.5C143.021 40.5 143.24 40.6093 143.486 40.828C143.759 41.0193 143.991 41.2517 144.183 41.525C144.483 41.935 144.688 42.345 144.798 42.755C144.934 43.165 145.003 43.657 145.003 44.231V44.928C145.467 43.37 146.164 42.1947 147.094 41.402C148.023 40.582 149.13 40.172 150.415 40.172C153.23 40.172 155.075 41.7573 155.95 44.928C156.36 43.3427 157.07 42.14 158.082 41.32C159.093 40.4727 160.35 40.049 161.854 40.049ZM180.257 71.619C179.793 71.619 179.396 71.4687 179.068 71.168C178.768 70.8947 178.617 70.553 178.617 70.143C178.617 69.979 178.658 69.7877 178.74 69.569C180.244 65.8517 181.528 62.4897 182.594 59.483C181.474 58.7723 180.285 57.433 179.027 55.465C177.77 53.497 176.622 51.283 175.583 48.823C174.572 46.3357 173.793 44.0397 173.246 41.935C173.192 41.771 173.164 41.5933 173.164 41.402C173.164 41.074 173.301 40.787 173.574 40.541C173.848 40.295 174.244 40.172 174.763 40.172C175.173 40.172 175.46 40.254 175.624 40.418C175.788 40.582 175.925 40.869 176.034 41.279C178.822 49.8617 181.364 54.9047 183.66 56.408C185.328 50.504 186.708 45.4063 187.801 41.115C187.911 40.7323 188.061 40.459 188.252 40.295C188.444 40.131 188.744 40.049 189.154 40.049C190.166 40.049 190.753 40.459 190.917 41.279C190.945 41.3883 190.931 41.5387 190.876 41.73C189.947 45.5567 189.182 48.5223 188.58 50.627C188.006 52.7317 187.282 55.055 186.407 57.597C185.779 59.401 184.986 61.6013 184.029 64.198C183.1 66.822 182.321 68.9267 181.692 70.512C181.556 70.8947 181.364 71.168 181.118 71.332C180.9 71.5233 180.613 71.619 180.257 71.619Z" fill="#3498DB"/>
<path d="M69.4969 35.4156C69.4969 14.0656 58.0125 6.80313 47.2719 5.18438C47.2719 5.075 47.2938 4.96563 47.2938 4.83438C47.2938 2.14375 44.9094 0 42 0C39.0906 0 36.7938 2.14375 36.7938 4.83438C36.7938 4.96563 36.7938 5.075 36.8156 5.18438C26.0531 6.825 14.5031 14.1094 14.5031 35.4594C14.5031 60.3531 8.3125 63.0219 0 70.0219H84C75.7312 63 69.4969 60.3094 69.4969 35.4156Z" fill="#3498DB"/>
<path d="M42.0438 84C47.9063 84 52.7187 79.6469 53.3531 74.5938H30.7344C31.3469 79.6469 36.1813 84 42.0438 84Z" fill="#3498DB"/>
</svg>
